<svg width="1024" height="1024" viewBox="0 0 1024 1024" fill="none" xmlns="http://www.w3.org/2000/svg">
<path d="M491.636 45.6622C486.982 48.2804 411.636 86.6803 324.364 130.608C68.364 259.771 57.0186 265.88 51.2004 279.262C48.8731 283.625 48.0004 358.68 48.0004 512.862C48.0004 756.643 47.7095 750.825 62.8367 764.788C66.6186 768.279 165.528 818.607 282.182 876.788C485.818 978.025 495.127 982.388 510.545 982.097C521.6 982.097 531.2 979.77 541.091 974.825C583.272 953.879 695.563 895.406 698.181 893.37C704 887.843 705.454 891.625 705.454 914.025C705.454 927.406 707.2 941.661 709.527 947.188C714.181 958.825 726.981 969.297 736.29 969.297C739.781 969.297 758.981 957.952 778.763 944.279C798.545 930.606 841.308 901.806 873.89 879.988C943.999 833.152 952.726 825.297 952.726 809.588C952.726 799.698 950.981 796.498 939.054 786.316C931.49 779.625 912.872 766.243 897.745 756.643C817.163 705.734 758.109 669.08 747.345 663.552C733.09 655.989 722.909 657.734 712.436 668.789C705.454 676.352 705.454 676.934 705.454 738.316V799.988L688.872 809.588C679.563 814.534 645.818 832.279 613.818 848.57C581.818 865.152 545.163 884.352 532.363 891.625L509.091 904.716L440.727 870.097C321.745 809.588 134.109 717.37 127.418 715.625L120.728 713.879V537.589C120.728 440.716 121.309 361.298 122.182 361.298C122.764 361.298 130.037 365.371 138.182 370.025C146.328 374.971 170.764 387.189 192.291 397.371L231.273 416.28V468.062C231.273 526.243 233.309 534.68 251.346 546.607C263.564 554.752 275.782 555.043 287.709 547.771C304 537.589 308.073 526.534 309.818 488.716L311.273 454.389L392.145 497.443L472.727 540.207V634.752C472.727 722.607 473.018 729.879 478.254 737.734C495.709 763.916 530.036 763.334 544 736.57C547.491 729.589 548.363 711.552 548.363 634.17V540.207L668.509 479.407C734.254 445.953 817.745 402.898 853.236 383.698C889.018 364.498 927.708 344.135 939.054 338.316C964.654 325.225 973.09 314.171 973.09 293.807C973.09 282.753 971.636 278.098 966.108 272.571C962.327 268.789 935.272 253.662 905.89 239.116C876.799 224.28 822.108 196.062 784.581 175.989C747.054 156.208 697.309 130.317 673.745 118.68C650.472 106.753 609.163 84.9349 581.818 70.3894C539.927 47.4077 530.036 43.0441 516.363 42.1713C505.309 41.2986 497.745 42.4623 491.636 45.6622ZM568.145 147.189C612.654 170.171 624.872 178.026 615.272 178.026C613.818 178.026 534.4 216.717 439.273 263.844L266.182 349.371L212.073 323.48L158.255 297.88L199.855 276.062C222.837 263.844 261.236 244.644 285.091 233.298C348.8 202.753 385.454 184.717 452.363 150.389C485.236 133.517 513.454 120.135 514.909 120.426C516.654 121.008 540.509 132.935 568.145 147.189ZM753.454 243.48C782.254 258.898 817.163 276.935 831.127 283.625C845.09 290.316 856.436 296.716 856.727 297.589C856.727 298.753 786.327 334.535 700.509 377.589C614.691 420.644 537.309 459.916 528.872 465.153L513.454 474.171L431.418 433.443C386.036 410.753 350.545 391.844 352 391.262C353.745 390.389 432.291 351.116 526.545 303.407C621.091 255.698 698.763 216.717 699.636 216.426C700.509 216.135 724.654 228.353 753.454 243.48Z" fill="white"/>
<path d="M918.058 277.005C909.41 282.84 908.834 278.859 904.221 292.611C898.168 310.531 898.168 315.115 898.168 504.728C898.168 720.179 897.879 717.262 918.058 736.431C930.453 748.516 943.714 748.516 956.109 736.431C976.288 717.262 975.999 720.595 975.999 502.228C975.999 323.866 974.625 300.401 970.013 287.483C959.923 258.311 937.66 263.67 918.058 277.005Z" fill="white"/>
</svg>
